<svg xmlns="http://www.w3.org/2000/svg" xmlns:xlink="http://www.w3.org/1999/xlink" version="1.2"
    width="560" height="560" viewBox="0 0 560 560">
    <g>
        <g id="zFMH3I7N" transform="matrix(1,0,0,1,0,0)">
            <defs><!----><!----><!---->
            </defs><!----><!---->
            <g><!---->
                <g transform=""><!---->
                    <g id="zFMH3I7N_origin" transform="skewX(0) skewY(0)">
                        <path id="shapepath_zFMH3I7N" d="M0,0H560V560H0Z" filter=""
                            style="fill: rgba(255, 255, 255, 0); stroke: none;"></path>
                    </g><!---->
                </g><!---->
            </g>
        </g>
    </g>
    <g>
        <g id="OJJlrV5C" transform="matrix(1,0,0,1,253.75998657226563,139.5)">
            <defs><!----><!----><!---->
            </defs><!----><!---->
            <g><!---->
                <g transform=""><!---->
                    <g id="OJJlrV5C_origin" transform="skewX(0) skewY(0)">
                        <path id="shapepath_OJJlrV5C"
                            d="M0,0H27.69L140.36,255.1L254.3,0H282.37L156.1,281H125.6Z" filter=""
                            style="fill: rgb(2, 201, 144);"></path>
                    </g><!---->
                </g><!---->
            </g>
        </g>
        <g id="MQsinB7p" transform="matrix(1,0,0,1,28.50499511718752,139.49999877929696)">
            <defs><!----><!----><!---->
            </defs><!----><!---->
            <g><!---->
                <g transform=""><!---->
                    <g id="MQsinB7p_origin" transform="skewX(0) skewY(0)">
                        <path id="shapepath_MQsinB7p" d="M0,0V25.07H178V0Z" filter=""
                            style="fill: rgb(255, 255, 255);"></path>
                    </g><!---->
                </g><!---->
            </g>
        </g>
        <g id="HU8ix9Fb" transform="matrix(1,0,0,1,28.499999389648437,280)">
            <defs><!----><!----><!---->
            </defs><!----><!---->
            <g><!---->
                <g transform=""><!---->
                    <g id="HU8ix9Fb_origin" transform="skewX(0) skewY(0)">
                        <path id="shapepath_HU8ix9Fb"
                            d="M1.36,0L177.01,0.51L177.42,23.86L26.54,24.65L25.9,140.4L0,140.33Z"
                            filter="" style="fill: rgb(255, 255, 255);"></path>
                    </g><!---->
                </g><!---->
            </g>
        </g>
        <g id="O0pBlrkK" transform="matrix(1,0,0,1,266.1300048828125,139.5000079345703)">
            <defs><!----><!----><!---->
            </defs><!----><!---->
            <g><!---->
                <g transform=""><!---->
                    <g id="O0pBlrkK_origin" transform="skewX(0) skewY(0)">
                        <path id="shapepath_O0pBlrkK"
                            d="M0,0H22.02L134.69,255.1L248.63,0H270L143.73,281H125.6Z" filter=""
                            style="fill: none;"></path>
                    </g><!---->
                </g><!---->
            </g>
        </g>
        <rect width="560" height="560" fill="url(#watermark)"></rect>
    </g>
</svg>