<svg xmlns="http://www.w3.org/2000/svg"  viewBox="0 0 30 30" width="30px" height="30px"><path d="M 15 3 C 8.373 3 3 8.373 3 15 C 3 21.627 8.373 27 15 27 C 21.627 27 27 21.627 27 15 C 27 13.079 26.536375 11.270156 25.734375 9.6601562 C 25.310375 10.196156 24.737266 10.598453 24.072266 10.814453 C 24.661266 12.088453 25 13.504 25 15 C 25 20.523 20.523 25 15 25 C 9.477 25 5 20.523 5 15 C 5 9.477 9.477 5 15 5 C 16.721 5 18.341859 5.4351719 19.755859 6.2011719 C 20.012859 5.5601719 20.449766 5.0120469 21.009766 4.6230469 C 19.241766 3.5970469 17.193 3 15 3 z M 23 5 A 2.5 2.5 0 0 0 23 10 A 2.5 2.5 0 0 0 23 5 z M 15 9.75 A 5.25 5.25 0 0 0 15 20.25 A 5.25 5.25 0 0 0 15 9.75 z"/></svg>